<svg width="16" height="16" viewBox="0 0 16 16" fill="none" xmlns="http://www.w3.org/2000/svg">
<path d="M6.42331 0.824271C6.89787 -0.274707 8.45619 -0.274707 8.93075 0.824271C9.25702 1.57982 10.1725 1.87727 10.8805 1.45779C11.9104 0.847645 13.1711 1.7636 12.9091 2.93163C12.729 3.73465 13.2947 4.5134 14.1141 4.59022C15.306 4.70195 15.7875 6.184 14.889 6.97494C14.2712 7.51871 14.2712 8.48129 14.889 9.02506C15.7875 9.816 15.306 11.298 14.1141 11.4098C13.2947 11.4866 12.729 12.2653 12.9091 13.0684C13.1711 14.2364 11.9104 15.1524 10.8805 14.5422C10.1725 14.1227 9.25702 14.4202 8.93075 15.1757C8.45619 16.2747 6.89787 16.2747 6.42331 15.1757C6.09705 14.4202 5.18158 14.1227 4.47353 14.5422C3.44363 15.1524 2.18293 14.2364 2.44496 13.0684C2.62511 12.2653 2.05932 11.4866 1.23993 11.4098C0.0480919 11.298 -0.433454 9.816 0.465088 9.02506C1.08283 8.48129 1.08283 7.51871 0.465088 6.97494C-0.433454 6.184 0.0480921 4.70195 1.23993 4.59022C2.05932 4.5134 2.62511 3.73465 2.44496 2.93163C2.18293 1.7636 3.44363 0.847645 4.47353 1.45779C5.18158 1.87727 6.09705 1.57982 6.42331 0.824271Z" fill="#EFF1C5"/>
</svg>
