<svg width="16" height="16" viewBox="0 0 16 16" fill="none" xmlns="http://www.w3.org/2000/svg">
<path d="M6.42337 0.824271C6.89794 -0.274707 8.45625 -0.274707 8.93081 0.824271C9.25708 1.57982 10.1726 1.87727 10.8806 1.45779C11.9105 0.847645 13.1712 1.7636 12.9092 2.93163C12.729 3.73465 13.2948 4.5134 14.1142 4.59022C15.306 4.70195 15.7876 6.184 14.889 6.97494C14.2713 7.51871 14.2713 8.48129 14.889 9.02506C15.7876 9.816 15.306 11.298 14.1142 11.4098C13.2948 11.4866 12.729 12.2653 12.9092 13.0684C13.1712 14.2364 11.9105 15.1524 10.8806 14.5422C10.1726 14.1227 9.25708 14.4202 8.93082 15.1757C8.45625 16.2747 6.89794 16.2747 6.42337 15.1757C6.09711 14.4202 5.18164 14.1227 4.47359 14.5422C3.4437 15.1524 2.18299 14.2364 2.44502 13.0684C2.62517 12.2653 2.05938 11.4866 1.23999 11.4098C0.0481534 11.298 -0.433392 9.816 0.465149 9.02506C1.0829 8.48129 1.0829 7.51871 0.465149 6.97494C-0.433392 6.184 0.0481537 4.70195 1.23999 4.59022C2.05938 4.5134 2.62517 3.73465 2.44502 2.93163C2.18299 1.7636 3.4437 0.847645 4.47359 1.45779C5.18164 1.87727 6.09711 1.57982 6.42337 0.824271Z" fill="#EFF1C5"/>
</svg>
